<svg width="234" height="234" viewBox="44 44 234 234" fill="none" xmlns="http://www.w3.org/2000/svg">
<g filter="url(#filter0_if_6373_8296)">
<circle cx="160.35" cy="160.349" r="75.2064" transform="rotate(70.2115 160.35 160.349)" stroke="url(#paint0_linear_6373_8296)" stroke-opacity="0.5" stroke-width="20"/>
</g>
<g filter="url(#filter1_d_6373_8296)">
<circle cx="160.35" cy="160.349" r="65.7831" transform="rotate(25.2115 160.35 160.349)" stroke="#F3E5AF" stroke-width="2"/>
</g>
<path d="M96.7849 109.056C88.4995 95.2469 85.8127 84.2913 90.4738 78.7178C101.429 65.6189 148.822 87.2087 196.33 126.94C243.838 166.671 273.47 209.499 262.515 222.597C257.314 228.818 243.895 227.216 226.15 219.564" stroke="url(#paint1_linear_6373_8296)" stroke-opacity="0.5"/>
<path d="M143.693 82.0287C144.536 67.3859 148.164 57.7386 154.598 55.8855C169.718 51.5304 194.613 91.8765 210.203 146.001C225.792 200.125 226.172 247.532 211.051 251.888C203.871 253.956 194.487 245.944 184.942 231.164" stroke="url(#paint2_linear_6373_8296)"/>
<defs>
<filter id="filter0_if_6373_8296" x="71.12" y="71.1201" width="178.459" height="178.459" filterUnits="userSpaceOnUse" color-interpolation-filters="sRGB">
<feFlood flood-opacity="0" result="BackgroundImageFix"/>
<feBlend mode="normal" in="SourceGraphic" in2="BackgroundImageFix" result="shape"/>
<feColorMatrix in="SourceAlpha" type="matrix" values="0 0 0 0 0 0 0 0 0 0 0 0 0 0 0 0 0 0 127 0" result="hardAlpha"/>
<feOffset dy="4"/>
<feGaussianBlur stdDeviation="2"/>
<feComposite in2="hardAlpha" operator="arithmetic" k2="-1" k3="1"/>
<feColorMatrix type="matrix" values="0 0 0 0 0 0 0 0 0 0 0 0 0 0 0 0 0 0 0.25 0"/>
<feBlend mode="normal" in2="shape" result="effect1_innerShadow_6373_8296"/>
<feGaussianBlur stdDeviation="2" result="effect2_foregroundBlur_6373_8296"/>
</filter>
<filter id="filter1_d_6373_8296" x="89.5507" y="93.5503" width="141.598" height="141.598" filterUnits="userSpaceOnUse" color-interpolation-filters="sRGB">
<feFlood flood-opacity="0" result="BackgroundImageFix"/>
<feColorMatrix in="SourceAlpha" type="matrix" values="0 0 0 0 0 0 0 0 0 0 0 0 0 0 0 0 0 0 127 0" result="hardAlpha"/>
<feOffset dy="4"/>
<feGaussianBlur stdDeviation="2"/>
<feColorMatrix type="matrix" values="0 0 0 0 1 0 0 0 0 0.8516 0 0 0 0 0.3 0 0 0 0.22 0"/>
<feBlend mode="normal" in2="BackgroundImageFix" result="effect1_dropShadow_6373_8296"/>
<feBlend mode="normal" in="SourceGraphic" in2="effect1_dropShadow_6373_8296" result="shape"/>
</filter>
<linearGradient id="paint0_linear_6373_8296" x1="160.35" y1="75.1431" x2="160.35" y2="245.556" gradientUnits="userSpaceOnUse">
<stop stop-color="#FFE894"/>
<stop offset="0.453125" stop-color="#484848"/>
<stop offset="0.692708" stop-color="#3F3F3F" stop-opacity="0.561905"/>
<stop offset="1" stop-color="#090909" stop-opacity="0"/>
</linearGradient>
<linearGradient id="paint1_linear_6373_8296" x1="174.215" y1="161.359" x2="166.628" y2="170.014" gradientUnits="userSpaceOnUse">
<stop stop-color="white"/>
<stop offset="1" stop-color="white" stop-opacity="0"/>
</linearGradient>
<linearGradient id="paint2_linear_6373_8296" x1="158.542" y1="159.206" x2="210.213" y2="146.042" gradientUnits="userSpaceOnUse">
<stop stop-color="#76829C" stop-opacity="0"/>
<stop offset="1" stop-color="#76829C"/>
</linearGradient>
</defs>
</svg>
