<svg width="109" height="109" viewBox="0 0 109 109" fill="none" xmlns="http://www.w3.org/2000/svg">
<g clip-path="url(#clip0)">
<path d="M62.5223 50.3408C62.5223 51.8741 62.0676 53.373 61.2158 54.6479C60.3639 55.9228 59.1532 56.9164 57.7366 57.5032C56.32 58.09 54.7612 58.2435 53.2574 57.9443C51.7536 57.6452 50.3722 56.9069 49.288 55.8227C48.2038 54.7385 47.4655 53.3571 47.1663 51.8533C46.8672 50.3494 47.0207 48.7907 47.6075 47.3741C48.1942 45.9575 49.1879 44.7467 50.4628 43.8949C51.7377 43.043 53.2365 42.5884 54.7698 42.5884C56.8252 42.5907 58.7957 43.4082 60.2491 44.8615C61.7025 46.3149 62.52 48.2855 62.5223 50.3408ZM66.9523 50.3408C66.9526 52.1358 66.5557 53.9086 65.7899 55.5321C65.0241 57.1556 63.9085 58.5894 62.5231 59.7307V70.2758C62.5232 70.4645 62.4749 70.6502 62.383 70.8151C62.2911 70.98 62.1585 71.1186 61.998 71.2179C61.8374 71.3171 61.6541 71.3737 61.4655 71.3822C61.2769 71.3907 61.0893 71.3508 60.9205 71.2664L54.7697 68.1915L48.621 71.2663C48.4522 71.3507 48.2645 71.3906 48.0759 71.3821C47.8874 71.3736 47.7041 71.3171 47.5435 71.2178C47.3829 71.1186 47.2503 70.98 47.1584 70.8151C47.0665 70.6502 47.0182 70.4646 47.0182 70.2758V59.732C45.4355 58.4255 44.2085 56.7403 43.4513 54.8328C42.694 52.9254 42.431 50.8575 42.6867 48.8212C42.9424 46.7849 43.7084 44.8462 44.9137 43.1852C46.119 41.5241 47.7245 40.1945 49.581 39.3199C51.4376 38.4452 53.4851 38.0539 55.5333 38.1821C57.5816 38.3104 59.5643 38.9542 61.2972 40.0536C63.0302 41.153 64.4572 42.6725 65.4458 44.471C66.4345 46.2694 66.9527 48.2885 66.9523 50.3408ZM64.7373 50.3408C64.7373 48.3695 64.1527 46.4423 63.0575 44.8032C61.9622 43.1641 60.4055 41.8865 58.5842 41.1321C56.7629 40.3777 54.7588 40.1803 52.8253 40.5649C50.8918 40.9495 49.1157 41.8988 47.7218 43.2928C46.3278 44.6867 45.3785 46.4628 44.9939 48.3963C44.6093 50.3298 44.8067 52.3339 45.5611 54.1552C46.3155 55.9765 47.5931 57.5332 49.2322 58.6285C50.8713 59.7237 52.7985 60.3083 54.7698 60.3083C57.4125 60.3053 59.946 59.2542 61.8146 57.3856C63.6832 55.517 64.7343 52.9835 64.7373 50.3408Z" fill="#878787"/>
</g>
<g filter="url(#filter0_i)">
<path fill-rule="evenodd" clip-rule="evenodd" d="M73.1108 73.1108C83.6343 62.5872 83.6343 45.5252 73.1108 35.0017C62.5872 24.4781 45.5252 24.4781 35.0017 35.0017C24.4782 45.5252 24.4782 62.5872 35.0017 73.1108C45.5252 83.6343 62.5872 83.6343 73.1108 73.1108ZM81.0843 81.0843C96.0116 66.1571 96.0116 41.9553 81.0843 27.0281C66.1571 12.1009 41.9553 12.1009 27.0281 27.0281C12.1009 41.9553 12.1009 66.1571 27.0281 81.0843C41.9553 96.0115 66.1571 96.0115 81.0843 81.0843Z" fill="url(#paint0_linear)" fill-opacity="0.5"/>
</g>
<g filter="url(#filter1_dd)">
<path fill-rule="evenodd" clip-rule="evenodd" d="M53.9653 80.5453C68.645 80.5453 80.5452 68.6451 80.5452 53.9654C80.5452 39.2857 68.645 27.3854 53.9653 27.3854C39.2856 27.3854 27.3854 39.2857 27.3854 53.9654C27.3854 68.6451 39.2856 80.5453 53.9653 80.5453ZM53.9653 83.7671C70.4244 83.7671 83.767 70.4244 83.767 53.9654C83.767 37.5063 70.4244 24.1636 53.9653 24.1636C37.5063 24.1636 24.1636 37.5063 24.1636 53.9654C24.1636 70.4244 37.5063 83.7671 53.9653 83.7671Z" fill="#B262E3"/>
</g>
<defs>
<filter id="filter0_i" x="15.8325" y="15.8327" width="76.4471" height="82.8907" filterUnits="userSpaceOnUse" color-interpolation-filters="sRGB">
<feFlood flood-opacity="0" result="BackgroundImageFix"/>
<feBlend mode="normal" in="SourceGraphic" in2="BackgroundImageFix" result="shape"/>
<feColorMatrix in="SourceAlpha" type="matrix" values="0 0 0 0 0 0 0 0 0 0 0 0 0 0 0 0 0 0 127 0" result="hardAlpha"/>
<feOffset dy="6.44362"/>
<feGaussianBlur stdDeviation="3.22181"/>
<feComposite in2="hardAlpha" operator="arithmetic" k2="-1" k3="1"/>
<feColorMatrix type="matrix" values="0 0 0 0 0 0 0 0 0 0 0 0 0 0 0 0 0 0 0.15 0"/>
<feBlend mode="normal" in2="shape" result="effect1_innerShadow"/>
</filter>
<filter id="filter1_dd" x="17.72" y="24.1636" width="72.4907" height="72.4907" filterUnits="userSpaceOnUse" color-interpolation-filters="sRGB">
<feFlood flood-opacity="0" result="BackgroundImageFix"/>
<feColorMatrix in="SourceAlpha" type="matrix" values="0 0 0 0 0 0 0 0 0 0 0 0 0 0 0 0 0 0 127 0" result="hardAlpha"/>
<feOffset dy="6.44362"/>
<feGaussianBlur stdDeviation="3.22181"/>
<feColorMatrix type="matrix" values="0 0 0 0 0.0219445 0 0 0 0 0.543783 0 0 0 0 0.658333 0 0 0 0.14 0"/>
<feBlend mode="normal" in2="BackgroundImageFix" result="effect1_dropShadow"/>
<feColorMatrix in="SourceAlpha" type="matrix" values="0 0 0 0 0 0 0 0 0 0 0 0 0 0 0 0 0 0 127 0" result="hardAlpha"/>
<feOffset dy="6.44362"/>
<feGaussianBlur stdDeviation="3.22181"/>
<feColorMatrix type="matrix" values="0 0 0 0 0.941176 0 0 0 0 0.831373 0 0 0 0 0.760784 0 0 0 0.14 0"/>
<feBlend mode="normal" in2="effect1_dropShadow" result="effect2_dropShadow"/>
<feBlend mode="normal" in="SourceGraphic" in2="effect2_dropShadow" result="shape"/>
</filter>
<linearGradient id="paint0_linear" x1="27.0281" y1="27.0281" x2="81.0843" y2="81.0843" gradientUnits="userSpaceOnUse">
<stop stop-color="#E7E7E7"/>
<stop offset="0.453125" stop-color="#6362E3"/>
<stop offset="0.692708" stop-color="#704E97"/>
<stop offset="1" stop-color="#090909" stop-opacity="0"/>
</linearGradient>
<clipPath id="clip0">
<rect width="38.6617" height="38.6617" fill="white" transform="translate(33.8291 33.829)"/>
</clipPath>
</defs>
</svg>
