<svg width="130" height="8.5" viewBox="0 0 382 25" xmlns="http://www.w3.org/2000/svg">
    <g stroke="none" stroke-width="1" fill="none" fill-rule="evenodd">
        <g fill-rule="nonzero">
            <path d="M222.026,19.4821 C223.227,19.4821 224.202,20.4563 224.202,21.658 C224.202,22.8597 223.227,23.8338 222.026,23.8338 L209.289,23.8338 C207.587,23.8338 206.207,22.454 206.207,20.7519 L206.207,3.48366 C206.207,1.78159 207.587,0.401795 209.289,0.401795 L221.594,0.401795 C222.796,0.401795 223.77,1.37595 223.77,2.57763 C223.77,3.7793 222.796,4.75346 221.594,4.75346 L214.096,4.75346 C212.691,4.75346 211.552,5.89246 211.552,7.2975 C211.552,8.70254 212.691,9.84155 214.096,9.84155 L220.233,9.84155 C221.398,9.84155 222.342,10.7857 222.342,11.9504 C222.342,13.1151 221.398,14.0593 220.233,14.0593 L214.264,14.0593 C212.766,14.0593 211.552,15.2733 211.552,16.7707 C211.552,18.2682 212.766,19.4821 214.264,19.4821 L222.026,19.4821 Z" id="Path" fill="#010F18"></path>
            <path d="M245.519,24.2355 C243.682,24.2355 241.901,23.99 240.174,23.4991 C239.176,23.1985 238.292,22.8482 237.522,22.4482 C236.619,21.9793 236.35,20.8698 236.765,19.9411 C237.339,18.6565 238.969,18.2322 240.266,18.7795 C240.639,18.9372 241.029,19.0821 241.436,19.2144 C242.808,19.6607 244.18,19.8838 245.553,19.8838 C247.08,19.8838 248.209,19.6607 248.939,19.2144 C249.669,18.7457 250.035,18.132 250.035,17.3733 C250.035,16.8154 249.813,16.3579 249.371,16.0008 C248.95,15.6214 248.397,15.3202 247.71,15.097 C247.046,14.8739 246.139,14.6284 244.988,14.3606 C243.217,13.9366 241.768,13.5126 240.639,13.0886 C239.51,12.6645 238.536,11.9839 237.717,11.0466 C236.92,10.1093 236.522,8.85964 236.522,7.2975 C236.522,5.93622 236.887,4.70882 237.618,3.61533 C238.348,2.49952 239.444,1.61803 240.904,0.970859 C242.387,0.32369 244.191,0.000106812 246.316,0.000106812 C247.799,0.000106812 249.249,0.178636 250.665,0.535695 C251.399,0.72063 252.085,0.947472 252.724,1.21622 C253.722,1.63642 254.089,2.80621 253.684,3.81103 C253.176,5.07066 251.676,5.57061 250.401,5.10435 C249.028,4.60263 247.656,4.35176 246.283,4.35176 C244.778,4.35176 243.66,4.59724 242.93,5.0882 C242.221,5.57916 241.867,6.22633 241.867,7.02971 C241.867,7.83309 242.277,8.43563 243.096,8.83732 C243.937,9.21669 245.209,9.59607 246.914,9.97545 C248.684,10.3995 250.134,10.8235 251.263,11.2475 C252.392,11.6715 253.355,12.341 254.151,13.2559 C254.97,14.1709 255.38,15.4094 255.38,16.9716 C255.38,18.3105 255.003,19.5379 254.251,20.6537 C253.521,21.7472 252.414,22.6176 250.931,23.2647 C249.448,23.9119 247.644,24.2355 245.519,24.2355 Z" id="Path" fill="#010F18"></path>
            <path d="M273.271,7.90226 C273.271,6.2002 271.891,4.82041 270.189,4.82041 L268.044,4.82041 C266.823,4.82041 265.834,3.83127 265.834,2.6111 C265.834,1.39093 266.823,0.401795 268.044,0.401795 L283.877,0.401795 C285.097,0.401795 286.086,1.39093 286.086,2.6111 C286.086,3.83127 285.097,4.82041 283.877,4.82041 L281.731,4.82041 C280.029,4.82041 278.65,6.2002 278.65,7.90227 L278.65,21.1446 C278.65,22.6298 277.446,23.8338 275.96,23.8338 C274.475,23.8338 273.271,22.6298 273.271,21.1446 L273.271,7.90226 Z" id="Path" fill="#010F18"></path>
            <path d="M314.472,20.7255 C313.998,19.5684 312.871,18.8127 311.62,18.8127 L304.965,18.8127 C303.715,18.8127 302.588,19.5684 302.114,20.7255 L301.475,22.2833 C301.09,23.2212 300.177,23.8338 299.164,23.8338 C297.358,23.8338 296.149,21.9772 296.879,20.3258 L304.875,2.23761 C305.368,1.12164 306.474,0.401795 307.694,0.401795 L308.994,0.401795 C310.213,0.401795 311.317,1.1201 311.811,2.23427 L319.797,20.2417 C320.547,21.9317 319.309,23.8338 317.461,23.8338 C316.424,23.8338 315.489,23.207 315.096,22.2474 L314.472,20.7255 Z M310.462,14.6953 C311.193,14.6953 311.69,13.9537 311.412,13.2777 L309.26,8.03743 C308.911,7.18817 307.708,7.18817 307.359,8.03743 L305.206,13.2777 C304.929,13.9537 305.426,14.6953 306.157,14.6953 L310.462,14.6953 Z" id="Shape" fill="#010F18"></path>
            <path d="M338.018,7.90226 C338.018,6.2002 336.638,4.82041 334.936,4.82041 L332.79,4.82041 C331.57,4.82041 330.581,3.83127 330.581,2.6111 C330.581,1.39093 331.57,0.401795 332.79,0.401795 L348.624,0.401795 C349.844,0.401795 350.833,1.39093 350.833,2.6111 C350.833,3.83127 349.844,4.82041 348.624,4.82041 L346.478,4.82041 C344.776,4.82041 343.396,6.2002 343.396,7.90227 L343.396,21.1446 C343.396,22.6298 342.192,23.8338 340.707,23.8338 C339.222,23.8338 338.018,22.6298 338.018,21.1446 L338.018,7.90226 Z" id="Path" fill="#010F18"></path>
            <path d="M378.948,19.4821 C380.149,19.4821 381.123,20.4563 381.123,21.658 C381.123,22.8597 380.149,23.8338 378.948,23.8338 L366.211,23.8338 C364.509,23.8338 363.129,22.454 363.129,20.7519 L363.129,3.48366 C363.129,1.78159 364.509,0.401795 366.211,0.401795 L378.516,0.401795 C379.718,0.401795 380.692,1.37595 380.692,2.57763 C380.692,3.7793 379.718,4.75346 378.516,4.75346 L371.018,4.75346 C369.613,4.75346 368.474,5.89246 368.474,7.2975 C368.474,8.70254 369.613,9.84155 371.018,9.84155 L377.155,9.84155 C378.32,9.84155 379.264,10.7857 379.264,11.9504 C379.264,13.1151 378.32,14.0593 377.155,14.0593 L371.186,14.0593 C369.688,14.0593 368.474,15.2733 368.474,16.7707 C368.474,18.2682 369.688,19.4821 371.186,19.4821 L378.948,19.4821 Z" id="Path" fill="#010F18"></path>
            <polygon id="Path" fill="#010F18" points="20.9913 0.524197 20.9913 2.0269 12.4741 2.0269 12.4741 23.6937 8.51719 23.6937 8.51719 2.0269 0 2.0269 0 0.524197"></polygon>
            <path d="M45.1553,0 L56.2276,23.6937 L52.1997,23.6937 L48.6154,15.9705 L38.519,15.9705 L34.8104,23.6937 L32.8231,23.6937 L44.1616,0 L45.1553,0 Z M39.211,14.4678 L47.8879,14.4678 L43.6115,5.29439 L39.211,14.4678 Z" id="Shape" fill="#010F18"></path>
            <path d="M78.2978,22.7676 C78.8774,22.7676 79.4511,22.6919 80.0189,22.5405 C80.5868,22.3774 81.0954,22.1444 81.5449,21.8416 C81.9945,21.527 82.3553,21.1485 82.6273,20.7058 C82.8994,20.2515 83.0355,19.7273 83.0355,19.1332 C83.0355,18.4226 82.8462,17.7936 82.4676,17.2461 C82.1009,16.6869 81.6159,16.1802 81.0126,15.7259 C80.4093,15.26 79.7173,14.8231 78.9366,14.4154 C78.1676,14.0077 77.381,13.6 76.5766,13.1923 C75.7722,12.7846 74.9796,12.3594 74.1989,11.9168 C73.43,11.4624 72.7439,10.9615 72.1405,10.4141 C71.5373,9.85491 71.0463,9.23752 70.6678,8.56189 C70.3011,7.87461 70.1177,7.08831 70.1177,6.203 C70.1177,5.31769 70.2833,4.49645 70.6146,3.73927 C70.9576,2.9821 71.4544,2.32977 72.1051,1.78227 C72.7557,1.22313 73.5542,0.786296 74.5005,0.471778 C75.4587,0.157259 76.5529,0 77.7832,0 C78.8951,0 79.8888,0.116488 80.7642,0.349465 C81.6396,0.582442 82.4085,0.926082 83.0709,1.38039 C83.7334,1.83469 84.2953,2.39383 84.7566,3.05782 C85.218,3.7218 85.5906,4.49062 85.8745,5.36429 L83.8517,6.27289 C83.6151,5.56232 83.3134,4.91581 82.9467,4.33336 C82.58,3.73927 82.1423,3.23255 81.6337,2.81319 C81.125,2.39383 80.5335,2.07349 79.8593,1.85216 C79.1968,1.61919 78.4456,1.5027 77.6057,1.5027 C76.8605,1.5027 76.2099,1.60754 75.6539,1.81722 C75.0979,2.01525 74.6306,2.28317 74.2521,2.62099 C73.8854,2.94715 73.6074,3.31992 73.4181,3.73927 C73.2407,4.14698 73.152,4.56634 73.152,4.99735 C73.152,5.60309 73.3412,6.16223 73.7198,6.67478 C74.0983,7.17568 74.6011,7.65328 75.228,8.10759 C75.855,8.55024 76.5648,8.98125 77.3573,9.40061 C78.1617,9.81996 78.978,10.2451 79.806,10.6762 C80.6341,11.1072 81.4444,11.5556 82.237,12.0216 C83.0414,12.4875 83.757,13.0001 84.384,13.5592 C85.011,14.1067 85.5137,14.7125 85.8923,15.3765 C86.2708,16.0288 86.4601,16.7627 86.4601,17.5781 C86.4601,18.4983 86.2826,19.3662 85.9277,20.1816 C85.5729,20.9854 85.0405,21.6901 84.3308,22.2959 C83.621,22.89 82.7397,23.3617 81.6869,23.7112 C80.6341,24.0607 79.4097,24.2354 78.0139,24.2354 C76.8782,24.2354 75.8668,24.1131 74.9796,23.8685 C74.0924,23.6238 73.3057,23.2685 72.6196,22.8026 C71.9454,22.3366 71.3657,21.7717 70.8807,21.1077 C70.3957,20.432 69.9994,19.6632 69.6919,18.8012 L71.8034,17.945 C72.0518,18.7022 72.3831,19.3778 72.7971,19.9719 C73.2229,20.566 73.7139,21.0727 74.2698,21.4921 C74.8258,21.8998 75.441,22.2143 76.1152,22.4356 C76.8013,22.657 77.5289,22.7676 78.2978,22.7676 Z" id="Path" fill="#010F18"></path>
            <polygon id="Path" fill="#010F18" points="107.004 12.5807 107.004 23.6937 103.047 23.6937 103.047 0.524197 107.004 0.524197 107.004 11.078 118.822 11.078 118.822 0.524197 122.779 0.524197 122.779 23.6937 118.822 23.6937 118.822 12.5807"></polygon>
            <polygon id="Path" fill="#010F18" points="140.289 0.524197 144.246 0.524197 144.246 23.6937 140.289 23.6937"></polygon>
            <path d="M161.738,0.524197 L169.9,0.524197 C171.308,0.524197 172.544,0.675632 173.609,0.978502 C174.673,1.26972 175.56,1.68326 176.27,2.2191 C176.98,2.75495 177.512,3.39563 177.867,4.14116 C178.234,4.87504 178.417,5.6788 178.417,6.55247 C178.417,7.27469 178.275,7.95033 177.991,8.57936 C177.719,9.2084 177.329,9.77919 176.82,10.2917 C176.323,10.7926 175.72,11.2295 175.01,11.6022 C174.301,11.9633 173.52,12.2487 172.668,12.4584 L181.239,23.6937 L176.643,23.6937 L168.463,12.8079 L165.695,12.8079 L165.695,23.6937 L161.738,23.6937 L161.738,0.524197 Z M165.695,11.6372 L167.984,11.6372 C168.871,11.6372 169.687,11.5207 170.432,11.2877 C171.189,11.0547 171.84,10.7286 172.384,10.3092 C172.94,9.87821 173.372,9.35983 173.68,8.7541 C173.987,8.14836 174.141,7.4669 174.141,6.70973 C174.141,6.0108 174.017,5.37011 173.768,4.78767 C173.532,4.20523 173.189,3.71015 172.739,3.30244 C172.301,2.88309 171.775,2.55692 171.16,2.32394 C170.557,2.09097 169.894,1.97448 169.173,1.97448 L165.695,1.97448 L165.695,11.6372 Z" id="Shape" fill="#000000"></path>
        </g>
    </g>
</svg>