<svg width="250" height="100" viewBox="0 0 250 100" fill="none" xmlns="http://www.w3.org/2000/svg">
<mask id="mask0" mask-type="alpha" maskUnits="userSpaceOnUse" x="1" y="11" width="249" height="78">
<path d="M1.00049 88.633H249.137V11.0003H1.00049V88.633Z" fill="white"/>
</mask>
<g mask="url(#mask0)">
<path d="M174.806 49.1443C173.275 49.1443 172.03 50.4645 172.03 52.0795C172.03 53.709 173.275 55.0175 174.806 55.0175C176.335 55.0175 177.578 53.709 177.578 52.0795C177.578 50.4645 176.335 49.1443 174.806 49.1443ZM78.6202 51.9345C78.6202 51.9345 80.0052 47.0341 80.216 46.2665C80.7755 44.2731 81.6129 41.1336 81.6129 41.1336H81.751C81.751 41.1336 82.5212 44.3879 83.0246 46.2383C83.2216 46.9573 84.544 51.9345 84.544 51.9345H78.6202ZM87.0499 60.8334H92.0599L84.4925 36.3811C83.6964 36.097 82.7016 35.92 81.6516 35.92C80.5049 35.92 80.0954 36.0805 79.1954 36.3811L71.1724 60.8334H75.9707C75.9707 60.8334 76.614 58.6911 77.3999 56.0323H85.699C86.4462 58.6902 87.0499 60.8334 87.0499 60.8334ZM249.137 60.8334C249.137 60.8334 246.765 55.4797 246.184 54.2694C245.53 52.8947 244.926 51.9471 243.586 51.6105V51.5308C244.484 51.3517 245.196 50.7758 245.968 49.0275C246.712 47.3172 246.932 46.9514 247.366 46.5477C247.794 46.1381 248.377 46.2938 248.377 46.2938L248.598 43.1095C247.974 43.0229 247.286 43.021 246.574 43.0619C245.399 43.1387 244.785 43.4919 244.21 44.1135C243.76 44.5863 243.449 45.2917 243.066 46.1196C242.657 47.003 242.337 47.718 241.928 48.618C241.509 49.5403 241.306 49.9518 240.179 49.9518H239.448V43.3411H235.082V60.8334H239.448V53.6847L240.043 53.675C241.283 53.675 241.496 54.0019 242.156 55.3863C242.932 57.0402 244.398 60.8334 244.398 60.8334H249.137ZM231.288 60.8334V43.3411H226.937V49.9547H222.014V43.3411H217.672V60.8334H222.014V53.6905H226.937V60.8334H231.288ZM111.774 43.1815L111.756 59.9131C113.818 60.8334 116.083 61.2469 118.095 61.2469C122.713 61.2469 125.184 58.7242 125.184 54.5652C125.184 50.8011 122.997 48.473 118.909 48.473C117.87 48.473 117.262 48.618 116.121 48.9079V43.1815H111.774ZM120.688 54.7782C120.688 56.5041 120.112 57.6861 118.025 57.6861C117.32 57.6861 117.032 57.6861 116.119 57.4157V52.3713C117.252 52.1388 117.352 52.0989 118.025 52.0989C120.021 52.0989 120.688 53.1253 120.688 54.7782ZM215.393 59.1542C214.242 57.3087 213.943 56.22 213.943 53.8987V49.1871C213.943 46.642 213.668 45.7081 213.031 44.7751C212.147 43.4666 210.677 42.9004 207.961 42.9004C206.044 42.9004 204.167 43.1193 202.37 43.6028L203.013 46.9777C204.232 46.7977 205.513 46.642 206.432 46.642C209.306 46.642 209.639 47.0857 209.639 49.3651V50.2193C209 50.0384 208.282 49.907 207.443 49.907C203.096 49.907 200.806 52.1485 200.806 55.8493C200.806 59.3274 203.253 61.2265 206.247 61.2265C207.362 61.2265 208.521 61.0075 209.439 60.6155C209.994 60.3567 210.236 60.2108 210.952 59.7107C211.386 60.3839 212.256 61.0649 212.61 61.1875L215.393 59.1542ZM209.865 57.1374C208.911 57.4877 208.282 57.5684 207.524 57.5684C205.966 57.5684 205.09 56.9185 205.09 55.2316C205.09 53.4765 206.205 52.8821 208.36 52.8821C208.883 52.8821 209.401 52.9657 209.639 53.0552V54.3132C209.639 55.6713 209.708 56.5596 209.865 57.1374ZM167.416 59.1542C166.269 57.3087 165.97 56.22 165.97 53.8987V49.1871C165.97 46.642 165.692 45.7081 165.053 44.7751C164.174 43.4666 162.701 42.9004 159.986 42.9004C158.073 42.9004 156.19 43.1193 154.392 43.6028L155.037 46.9777C156.26 46.7977 157.533 46.642 158.455 46.642C161.335 46.642 161.668 47.0857 161.668 49.3651V50.2193C161.026 50.0384 160.306 49.907 159.468 49.907C155.117 49.907 152.828 52.1485 152.828 55.8493C152.828 59.3274 155.273 61.2265 158.273 61.2265C159.385 61.2265 160.548 61.0075 161.466 60.6155C162.018 60.3567 162.259 60.2108 162.979 59.7107C163.413 60.3839 164.279 61.0649 164.634 61.1875L167.416 59.1542ZM161.89 57.1374C160.935 57.4877 160.306 57.5684 159.551 57.5684C157.995 57.5684 157.11 56.9185 157.11 55.2316C157.11 53.4765 158.227 52.8821 160.382 52.8821C160.901 52.8821 161.422 52.9657 161.668 53.0552V54.3132C161.668 55.6713 161.73 56.5596 161.89 57.1374ZM108.327 60.8334V43.9783C105.94 43.2263 104.103 42.9004 101.706 42.9004C99.3135 42.9004 97.5217 43.2263 95.1336 43.9783V52.6077C95.1336 54.9543 95.095 55.6587 94.8529 56.4175C94.6127 57.082 94.2906 57.8797 93.4145 58.4966L94.5998 61.1875C98.0914 60.1456 99.4055 58.5394 99.4055 53.4347V47.0857C100.56 46.9076 100.787 46.8658 101.706 46.8658C102.632 46.8658 102.824 46.9076 103.975 47.0857V60.8334H108.327ZM141.233 66.5627V60.2779C141.783 60.6223 142.882 61.1311 144.734 61.1311C148.417 61.1311 151.13 57.8953 151.13 51.9831C151.13 45.6137 148.434 42.8877 144.003 42.8877C142.878 42.8877 142.145 43.0093 141.233 43.4695V35.9608H136.901V43.4695C135.99 43.0093 135.253 42.8877 134.129 42.8877C129.697 42.8877 127.001 45.7266 127.001 52.0911C127.001 58.0062 129.439 61.1311 133.391 61.1311C135.252 61.1311 136.35 60.6223 136.901 60.2779V66.5627H141.233ZM131.465 52.0911C131.465 48.581 132.466 46.7247 134.461 46.7247C135.304 46.7247 135.863 46.7189 136.901 47.2443V56.902C135.958 57.2289 135.513 57.2737 134.672 57.2737C132.398 57.2737 131.465 55.3113 131.465 52.0911ZM146.666 51.9831C146.666 55.1995 145.454 57.2737 143.46 57.2737C142.622 57.2737 142.178 57.2289 141.233 56.902V47.2443C142.27 46.7189 142.83 46.7247 143.669 46.7247C145.667 46.7247 146.666 48.4691 146.666 51.9831ZM199.147 53.2391C199.147 48.9059 196.746 45.9211 191.7 45.9211C190.461 45.9211 189.595 46.0457 188.259 46.3794L188.249 40.1413C189.081 40.0167 190.505 39.9068 192.074 39.9068C193.557 39.9068 195.437 39.9924 197.086 40.2055L197.201 36.5903C195.327 36.1457 192.608 35.8742 190.498 35.8742C188.419 35.8742 185.186 36.4239 183.648 36.8646L183.646 59.9218C186.046 60.85 188.387 61.2751 190.792 61.2751C196.292 61.2751 199.147 58.192 199.147 53.2391ZM194.522 53.5884C194.522 55.9252 193.298 57.4634 191.045 57.4634C190.153 57.4634 189.422 57.4663 188.259 57.1306V50.0568C188.773 49.9673 189.834 49.7932 191.045 49.8399C193.335 49.9313 194.522 51.0628 194.522 53.5884ZM24.5347 23.2784L18.0274 43.9316H31.145L24.6157 23.2784H24.5347ZM1.72935 78.2713C1.32535 78.2713 1.00049 78.6244 1.00049 79.0612V87.8434C1.00049 88.2822 1.32535 88.6334 1.72935 88.6334H47.4173C47.8177 88.6334 48.1407 88.2822 48.1407 87.8434V79.0612C48.1407 78.6244 47.8177 78.2713 47.4173 78.2713H1.72935ZM24.5733 10.9997C29.5741 10.9997 31.145 14.7861 32.4583 18.5765C33.0159 20.1788 46.0038 57.7766 46.3912 58.9042C46.4998 59.2145 46.429 59.735 45.9697 59.9199C45.5096 60.1047 38.7603 62.8803 38.3885 63.0282C38.0149 63.1761 37.5943 62.9572 37.4581 62.5642C37.3201 62.175 34.5215 53.9795 34.2068 53.0611H14.9647C14.6473 53.9795 11.8211 62.1896 11.6913 62.5642C11.5616 62.9397 11.1566 63.1926 10.7628 63.0282C10.3661 62.8609 3.58738 60.0843 3.18706 59.9199C2.79871 59.7642 2.62017 59.2982 2.75821 58.9042C3.23584 57.4925 16.0249 20.4999 16.6801 18.5765C17.9455 14.8465 19.5753 10.9997 24.5733 10.9997Z" fill="white"/>
</g>
</svg>
