<svg width="250" height="100" viewBox="0 0 250 100" fill="none" xmlns="http://www.w3.org/2000/svg">
<path d="M68.7291 52.4622C69.4263 52.4622 70.4223 52.4621 71.2191 51.7649C71.7171 51.2669 72.1155 50.3705 72.1155 49.6733C72.1155 48.9761 71.8167 48.1793 71.3187 47.6813C70.7211 47.1833 69.9243 46.9841 68.9283 46.9841H65.8406V52.4622H68.7291ZM68.6295 44.494C70.1235 44.494 71.7171 44.5936 73.2112 45.49C74.2072 46.0876 75.3028 47.3825 75.3028 49.6733C75.3028 52.1633 73.7092 55.0518 69.5259 55.0518H65.9402V61.8247H62.753V44.494H68.6295Z" fill="#19502E"/>
<path d="M80.2829 59.0359C80.5817 59.3347 81.1793 59.9323 82.2749 59.9323C83.3705 59.9323 83.9681 59.3347 84.2669 59.0359C84.4661 58.8366 85.263 57.8406 85.263 55.3506C85.263 52.8606 84.4661 51.9641 84.2669 51.6653C83.9681 51.3665 83.3705 50.7689 82.2749 50.7689C81.1793 50.7689 80.5817 51.3665 80.2829 51.6653C80.0837 51.8645 79.2869 52.8606 79.2869 55.3506C79.2869 57.8406 80.0837 58.737 80.2829 59.0359ZM78.1913 50.1713C79.0877 49.3745 80.3825 48.5777 82.2749 48.5777C84.2669 48.5777 85.5618 49.2749 86.3586 50.1713C87.6534 51.3665 88.3506 53.3586 88.3506 55.3506C88.3506 57.3426 87.6534 59.2351 86.3586 60.5299C85.4622 61.3267 84.1673 62.1235 82.2749 62.1235C80.2829 62.1235 78.9881 61.4263 78.1913 60.5299C76.8964 59.3347 76.1992 57.3426 76.1992 55.3506C76.1992 53.3586 76.8964 51.4661 78.1913 50.1713Z" fill="#19502E"/>
<path d="M98.3108 53.6574C98.2112 52.9602 98.012 52.2629 97.7132 51.7649C97.4143 51.2669 96.8167 50.7689 95.8207 50.7689C94.8247 50.7689 94.2271 51.2669 93.8287 51.9641C93.2311 52.9602 93.1315 54.6534 93.1315 55.3506C93.1315 56.5458 93.3307 57.9402 93.8287 58.737C94.1275 59.2351 94.8247 59.9323 95.8207 59.9323C96.5179 59.9323 97.2151 59.6335 97.7132 58.9363C98.1116 58.4383 98.3108 57.6414 98.4104 56.9442L101.1 57.243C100.9 58.4383 100.402 59.7331 99.506 60.6295C98.7092 61.3267 97.5139 62.0239 95.8207 62.0239C93.9283 62.0239 92.7331 61.2271 91.9363 60.6295C90.9402 59.7331 90.0438 58.0398 90.0438 55.3506C90.0438 52.8606 90.8406 51.4661 91.5378 50.6693C92.4343 49.5737 94.0279 48.6773 95.9203 48.6773C97.5139 48.6773 98.8088 49.2749 99.6056 50.0717C100.402 50.8685 100.9 52.1634 101.1 53.259L98.3108 53.6574Z" fill="#19502E"/>
<path d="M110.661 53.6574C110.661 52.9602 110.363 52.2629 110.064 51.7649C109.765 51.2669 109.167 50.7689 108.171 50.7689C107.175 50.7689 106.578 51.2669 106.179 51.9641C105.582 52.9602 105.482 54.6534 105.482 55.3506C105.482 56.5458 105.681 57.9402 106.179 58.737C106.478 59.2351 107.175 59.9323 108.171 59.9323C108.968 59.9323 109.566 59.6335 110.064 58.9363C110.462 58.4383 110.661 57.6414 110.761 56.9442L113.45 57.243C113.351 58.4383 112.753 59.7331 111.857 60.6295C111.06 61.3267 109.865 62.0239 108.171 62.0239C106.279 62.0239 105.084 61.2271 104.287 60.6295C103.291 59.7331 102.394 58.0398 102.394 55.3506C102.394 52.8606 103.191 51.4661 103.888 50.6693C104.785 49.5737 106.379 48.6773 108.271 48.6773C109.865 48.6773 111.159 49.2749 111.956 50.0717C112.753 50.8685 113.251 52.1634 113.45 53.259L110.661 53.6574Z" fill="#19502E"/>
<path d="M123.709 53.9562C123.709 53.259 123.51 52.3626 123.112 51.8645C122.613 51.1673 121.817 50.6693 120.821 50.6693C119.825 50.6693 119.028 51.1673 118.53 51.7649C118.131 52.2629 117.733 53.0598 117.733 53.9562H123.709ZM126.697 58.0398C126.199 59.5339 125.303 60.4303 124.606 60.9283C123.61 61.6255 122.315 62.0239 120.92 62.0239C119.227 62.0239 117.434 61.3267 116.438 60.2311C115.442 59.2351 114.745 57.4422 114.745 55.3506C114.745 52.761 115.841 50.9681 117.036 49.9721C117.733 49.3745 119.028 48.5777 120.92 48.5777C123.311 48.5777 124.904 49.6733 125.701 50.8685C126.598 52.0637 126.996 53.757 126.996 55.251V55.8486H117.932C117.932 56.0478 117.932 57.1434 118.331 58.1394C119.028 59.5339 120.223 59.9323 121.119 59.9323C121.817 59.9323 122.613 59.7331 123.311 59.0359C123.709 58.5378 123.908 58.1394 124.008 57.741L126.697 58.0398Z" fill="#19502E"/>
<path d="M139.247 48.8765V61.8247H136.359V51.0677H133.072C132.972 52.8606 132.972 53.5578 132.872 54.753C132.773 56.0478 132.673 58.9363 131.578 60.4303C130.98 61.2271 130.183 61.6255 129.586 61.7251C129.287 61.8247 128.888 61.9243 128.59 61.9243C128.39 61.9243 128.092 61.9243 127.892 61.8247V59.6335H128.092C128.49 59.6335 128.988 59.4343 129.287 59.1355C130.283 58.3386 130.382 56.5458 130.482 55.0518C130.582 53.1594 130.582 52.0637 130.681 50.2709V48.8765H139.247Z" fill="#19502E"/>
<path d="M145.223 59.6335H147.514C148.112 59.6335 148.61 59.6335 149.207 59.1355C149.506 58.8366 149.904 58.3386 149.904 57.5418C149.904 56.8446 149.705 56.247 149.108 55.9482C148.61 55.6494 148.012 55.5498 147.614 55.5498H145.323V59.6335H145.223ZM145.223 53.4582H148.41C149.207 53.4582 150.801 53.5578 151.896 54.6534C152.793 55.5498 152.992 56.9442 152.992 57.6414C152.992 59.5339 152.195 60.4303 151.697 60.9283C151.498 61.1275 150.502 61.8247 148.709 61.8247H142.335V48.8765H145.223V53.4582Z" fill="#19502E"/>
<path d="M157.076 48.8765L159.466 52.9602L161.857 48.8765H164.546L160.861 54.753L165.243 61.8247H161.857L158.968 56.9442L155.88 61.8247H153.291L157.574 55.0518L153.689 48.8765H157.076Z" fill="#19502E"/>
<path d="M169.626 59.0359C169.924 59.3347 170.522 59.9323 171.617 59.9323C172.713 59.9323 173.311 59.3347 173.61 59.0359C173.809 58.8366 174.606 57.8406 174.606 55.3506C174.606 52.8606 173.809 51.9641 173.61 51.6653C173.311 51.3665 172.713 50.7689 171.617 50.7689C170.522 50.7689 169.924 51.3665 169.626 51.6653C169.426 51.8645 168.63 52.8606 168.63 55.3506C168.63 57.8406 169.426 58.737 169.626 59.0359ZM167.434 50.1713C168.331 49.3745 169.625 48.5777 171.518 48.5777C173.51 48.5777 174.805 49.2749 175.602 50.1713C176.896 51.3665 177.594 53.3586 177.594 55.3506C177.594 57.3426 176.896 59.2351 175.602 60.5299C174.705 61.3267 173.41 62.1235 171.518 62.1235C169.526 62.1235 168.231 61.4263 167.434 60.5299C166.139 59.3347 165.442 57.3426 165.442 55.3506C165.442 53.3586 166.139 51.4661 167.434 50.1713Z" fill="#19502E"/>
<path d="M179.187 52.3625C179.586 50.7689 180.582 49.9721 181.279 49.4741C181.677 49.1753 182.872 48.5777 184.864 48.5777C186.159 48.5777 187.355 48.7769 188.351 49.3745C189.745 50.1713 190.143 51.2669 190.143 52.0637C190.143 52.9602 189.745 54.6534 187.554 54.8526V54.9522C188.351 55.0518 189.147 55.3506 189.645 55.9482C190.143 56.4462 190.442 57.243 190.442 58.1394C190.442 59.4343 189.645 60.5299 188.749 61.2271C187.554 62.0239 186.06 62.1235 184.864 62.1235C183.669 62.1235 181.876 62.0239 180.681 61.0279C179.984 60.4303 179.287 59.5339 179.088 58.3386L181.677 57.8406C181.777 58.239 181.976 58.8367 182.275 59.2351C182.972 60.0319 183.968 60.0319 184.566 60.0319C185.263 60.0319 185.96 59.9323 186.458 59.5339C186.956 59.1355 187.255 58.7371 187.255 58.0398C187.255 57.5418 187.155 57.0438 186.657 56.745C186.06 56.247 185.263 56.1474 184.566 56.1474H183.271V54.1554H184.566C185.064 54.1554 185.761 54.0558 186.159 53.8566C186.657 53.5578 186.956 53.1594 186.956 52.3625C186.956 51.9641 186.857 51.5657 186.458 51.2669C185.861 50.7689 185.064 50.7689 184.665 50.7689C184.068 50.7689 183.271 50.8685 182.574 51.4661C182.275 51.7649 181.876 52.1633 181.777 52.9602L179.187 52.3625Z" fill="#19502E"/>
<path d="M196.916 58.737H200.104C200.701 58.737 201.299 58.737 201.797 58.1394C202.394 57.5418 202.394 56.9442 202.394 56.4462C202.394 55.8486 202.195 55.3506 201.797 54.8526C201.199 54.255 200.502 54.255 200.004 54.255H196.916V58.737ZM205.183 47.4821H196.916V51.3665H200.602C201.896 51.3665 203.191 51.4661 204.486 52.3625C205.781 53.259 206.578 54.5538 206.578 56.4462C206.578 58.239 205.881 59.5339 205.084 60.3307C203.789 61.6255 202.394 61.7251 200.9 61.7251H192.932V44.494H205.183V47.4821Z" fill="#19502E"/>
<path d="M215.641 55.749C214.347 55.8486 213.151 55.9482 212.454 56.8446C212.255 57.1434 212.056 57.4422 212.056 58.0398C212.056 58.6375 212.355 58.9363 212.653 59.1355C213.052 59.4343 213.55 59.5339 214.048 59.5339C214.845 59.5339 215.641 59.2351 216.139 58.6375C216.239 58.5379 216.837 57.8406 216.837 56.3466V55.6494L215.641 55.749ZM208.57 52.4622C208.968 50.6693 210.064 49.8725 210.761 49.4741C211.757 48.8765 213.052 48.6773 214.745 48.6773C216.837 48.6773 218.928 48.9761 219.924 50.9681C220.422 51.9641 220.422 53.1594 220.422 54.0558V59.0359C220.422 60.0319 220.522 61.0279 220.821 61.8247H217.135C217.036 61.3267 216.936 60.6295 216.936 59.7331C216.438 60.6295 215.343 62.0239 212.653 62.0239C211.458 62.0239 210.263 61.7251 209.466 61.0279C208.669 60.3307 208.171 59.3347 208.171 58.1394C208.171 56.8446 208.769 55.3506 210.861 54.3546C212.255 53.757 214.546 53.5578 215.542 53.5578L216.737 53.4582V53.1594C216.737 52.761 216.737 52.0637 216.339 51.6653C215.841 51.0677 214.944 51.0677 214.546 51.0677C214.048 51.0677 213.45 51.1673 212.853 51.4661C212.554 51.6653 212.056 52.0637 211.956 52.761L208.57 52.4622Z" fill="#19502E"/>
<path d="M226.996 48.8765V53.757H230.98V48.8765H234.765V61.8247H230.98V56.3466H226.996V61.8247H223.311V48.8765H226.996Z" fill="#19502E"/>
<path d="M241.287 48.9227V53.9028H242.283C243.378 53.9028 243.777 53.4048 244.076 52.8072C244.574 51.7116 244.574 50.8151 245.072 49.9187C245.47 49.2215 245.968 49.0223 246.267 49.0223H249.354C248.956 49.4207 248.657 49.9187 248.358 50.4167C247.96 51.2136 247.562 52.608 247.362 53.2056C247.064 53.9028 246.566 54.6996 245.37 54.7992C246.068 54.8988 246.765 55.2972 247.263 55.9944C247.562 56.4924 247.761 57.09 248.159 58.0861C248.558 59.0821 248.657 59.4805 248.956 60.2773C249.255 60.8749 249.354 61.1737 249.753 61.7713H246.267C245.669 61.5721 245.37 61.1737 244.872 59.8789C244.474 58.8829 244.474 58.4845 244.275 57.9865L244.076 57.5881C243.677 56.592 243.179 56.3928 242.482 56.3928H241.287V61.7713H237.601V48.9227H241.287Z" fill="#19502E"/>
<path d="M28.49 81.0218C13.3506 81.0218 1 68.472 1 53.1333C1 44.2688 4.98406 36.2011 11.9562 30.9222L12.255 30.723V18.2728H27.992V25.2449C28.1912 25.2449 28.2908 25.2449 28.49 25.2449C43.6295 25.2449 55.9801 37.6951 55.9801 53.0337C55.9801 68.3724 43.6295 81.0218 28.49 81.0218Z" fill="#19502E"/>
<path d="M20.5219 53.5578L26.1992 47.8805V43.996L20.5219 49.6733V53.5578Z" fill="#FFCB05"/>
<path d="M20.5219 39.2151L26.1992 33.4383V29.8526L20.5219 35.5299V39.2151Z" fill="#FFCB05"/>
<path d="M20.5219 43.8964L26.1992 38.2191V34.6335L20.5219 40.3108V43.8964Z" fill="#FFCB05"/>
<path d="M18.9283 29.8526L18.1315 29.1554V20.0916H17.2351V28.259L16.5379 27.5618V20.0916H15.6414V26.6653L14.8446 25.8685V20.0916H14.0478V28.6574L19.7251 34.4343V20.0916H18.9283V29.8526Z" fill="#FFCB05"/>
<path d="M20.5219 48.6773L26.1992 43V39.4143L20.5219 44.992V48.6773Z" fill="#FFCB05"/>
<path d="M14.0478 47.8805L19.7251 53.5578V49.6733L14.0478 43.996V47.8805Z" fill="#FFCB05"/>
<path d="M25.4024 25.8685L24.6056 26.6653V20.0916H23.7092V27.5618L23.012 28.259V20.0916H22.1155V29.1554L21.4183 29.8526V20.0916H20.5219V34.4343L26.1992 28.6574V20.0916H25.4024V25.8685Z" fill="#FFCB05"/>
<path d="M14.0478 33.4383L19.7251 39.2151V35.5299L14.0478 29.8526V33.4383Z" fill="#FFCB05"/>
<path d="M14.0478 38.2191L19.7251 43.8964V40.3108L14.0478 34.6335V38.2191Z" fill="#FFCB05"/>
<path d="M14.0478 43L19.7251 48.6773V44.992L14.0478 39.4143V43Z" fill="#FFCB05"/>
<path d="M33.1713 49.5737C33.1713 50.4701 32.4741 51.1673 31.5777 51.1673C30.6813 51.1673 30.0837 50.4701 30.0837 49.5737C30.0837 49.2749 30.1833 48.9761 30.3825 48.6773L30.7809 47.9801C30.4821 47.7809 30.3825 47.3825 30.3825 46.9841C30.3825 46.5857 30.5817 46.2869 30.7809 45.9881L30.3825 45.2908C30.1833 45.0916 30.0837 44.7928 30.0837 44.3944C30.0837 43.498 30.7809 42.8008 31.5777 42.8008C32.4741 42.8008 33.1713 43.498 33.1713 44.3944C33.1713 44.992 32.4741 46.5857 32.4741 46.5857V47.3825C32.4741 47.3825 33.1713 48.9761 33.1713 49.5737ZM48.1115 45.9881H34.7649H34.1673C34.4661 45.49 34.6653 44.992 34.6653 44.3944C34.6653 42.7012 33.2709 41.4064 31.6773 41.4064C29.9841 41.4064 28.6892 42.8008 28.6892 44.3944C28.6892 45.0916 28.8884 45.6892 29.2868 46.1873C28.988 46.3865 28.8885 46.6853 28.8885 46.9841C28.8885 47.2829 29.0876 47.5817 29.2868 47.7809C28.8884 48.2789 28.6892 48.8765 28.6892 49.5737C28.6892 51.2669 29.9841 52.5617 31.6773 52.5617C33.3705 52.5617 34.6653 51.1673 34.6653 49.5737C34.6653 48.9761 34.4661 48.4781 34.1673 47.9801H36.6574H44.5259V48.5777H43.5299V49.4741H44.5259V50.3705H43.5299V52.0637H44.5259V51.2669H46.0199V52.0637H47.0159V50.3705H46.0199V49.4741H47.0159V48.5777H46.0199V47.9801H48.1115C48.51 47.9801 48.8088 47.6813 48.8088 47.2829V46.7849C48.8088 46.3865 48.51 45.9881 48.1115 45.9881Z" fill="#FFCB05"/>
<path d="M8.76892 44.1952V47.9801C8.76892 51.5657 10.3625 53.9562 11.259 54.8526C11.757 55.3506 17.1355 60.7291 17.1355 60.7291C18.8287 62.3227 19.1275 62.9203 19.4263 63.8167V59.6335C19.4263 55.8486 17.5339 54.4542 16.6374 53.4582C14.3466 51.2669 12.8526 49.7729 11.6574 48.5777C9.46613 46.2869 8.76892 44.1952 8.76892 44.1952Z" fill="white"/>
<path d="M16.6374 62.8207C14.4462 60.6295 12.8526 59.1355 11.6574 57.9402C9.36653 55.6494 8.76892 54.0558 8.76892 54.0558V57.3426C8.76892 60.9283 10.3625 63.3187 11.259 64.2151C11.757 64.7132 17.1355 69.992 17.1355 70.0916C18.8287 71.6853 19.1275 72.4821 19.4263 73.4781V69.0956C19.5259 65.2111 17.6335 63.8167 16.6374 62.8207Z" fill="white"/>
<path d="M28.49 27.0637C28.0916 27.0637 27.6932 27.0637 27.2948 27.0637V28.9562C27.6932 28.9562 28.0916 28.9562 28.49 28.9562C41.737 28.9562 52.3944 39.8128 52.3944 53.259C52.3944 66.7052 41.6374 77.5617 28.49 77.5617C15.243 77.5617 4.58564 66.7052 4.58564 53.259C4.58564 45.7889 7.8725 39.2151 13.0518 34.7331V32.4422C6.77688 37.1235 2.79282 44.5936 2.79282 53.1594C2.79282 67.502 14.247 79.1554 28.49 79.1554C42.6334 79.1554 54.1872 67.502 54.1872 53.1594C54.1872 38.7171 42.6334 27.0637 28.49 27.0637Z" fill="white"/>
<path d="M46.6175 66.7052C47.0159 66.1076 47.4143 65.6096 47.7131 65.012V61.5259H46.6175V66.7052Z" fill="white"/>
<path d="M49.9044 60.2311C50.1036 59.7331 50.2032 59.2351 50.3028 58.737H46.6175V59.6335H47.2151C48.2111 59.6335 49.3068 59.6335 49.9044 60.2311Z" fill="white"/>
<path d="M24.1076 68.996H25.1036V58.6375H24.1076V68.996Z" fill="white"/>
<path d="M42.8327 63.9163L41.7371 62.8207L42.8327 57.0438V63.9163ZM21.8167 56.6454H25.2032C26.0996 56.6454 26.6972 56.8446 26.996 57.1434C27.3944 57.4422 27.494 58.0398 27.494 58.9363V68.5976C27.494 69.494 27.2948 70.0916 26.996 70.3904C26.498 70.8884 25.502 70.8884 24.7052 70.8884C24.506 70.8884 24.3068 70.8884 24.2072 70.8884V75.4701C24.506 75.5697 24.9044 75.5697 25.2032 75.6693V71.8845C26.6972 71.8845 27.7928 71.3864 28.1912 70.2908V75.8685C28.2908 75.8685 28.3904 75.8685 28.49 75.8685C28.6892 75.8685 28.8885 75.8685 29.0877 75.8685V59.1355C29.0877 58.239 29.2869 57.6414 29.5857 57.243C29.8845 56.8446 30.4821 56.745 31.3785 56.745C32.2749 56.745 33.4701 56.6454 34.1673 57.243C34.4661 57.6414 34.6653 58.239 34.6653 59.1355V64.1155H32.3745V58.8367H31.3785V75.8685C31.6773 75.8685 32.0757 75.7689 32.3745 75.6693V65.1115H34.6653V75.1713C35.1634 75.0717 35.5618 74.8725 36.0598 74.6733V65.51C36.0598 64.5139 36.259 63.7171 37.3546 63.3187L36.1594 56.9442H38.4502L38.8486 63.9163H39.1474L39.5458 56.9442H41.9363L40.6414 63.3187C41.7371 63.7171 41.9363 64.4143 41.9363 65.51V71.4861C42.6335 70.9881 43.2311 70.3904 43.9283 69.7928V56.8446H50.7012C50.7012 56.5458 50.8008 56.247 50.8008 55.9482H34.9641L35.1634 57.1434C34.6653 56.247 33.6693 55.749 32.2749 55.749H31.2789C29.5857 55.749 28.5896 56.4462 28.1912 57.741C27.7928 56.3466 26.7968 55.6494 25.004 55.6494H20.6215V74.6733C20.9203 74.7729 21.3187 74.8725 21.6175 74.9721V56.6454H21.8167Z" fill="white"/>
<path d="M38.5498 73.6773C38.9482 73.4781 39.247 73.2789 39.5458 73.0797V65.2112H38.5498V73.6773Z" fill="white"/>
</svg>
