<svg width="250" height="100" viewBox="0 0 250 100" fill="none" xmlns="http://www.w3.org/2000/svg">
<path d="M58.8843 39.8097V41.696C58.8843 46.4115 64.1954 51.3629 70.4302 51.3629C76.2031 51.3629 81.9761 46.8831 81.9761 41.696V39.8097C81.9761 35.0941 77.0114 30.1428 70.4302 30.1428C62.9253 30.1428 58.8843 36.1551 58.8843 39.8097ZM76.2031 43.4643C76.2031 46.4115 73.894 48.8872 70.4302 49.0051C66.9664 48.8872 64.6572 46.4115 64.6572 43.4643V37.0983C64.6572 34.8584 67.1973 32.6184 70.4302 32.5006C73.7785 32.6184 76.0877 34.8584 76.2031 37.0983V43.4643Z" fill="white"/>
<path d="M23.0918 17.1749C10.3913 17.1749 0 27.7849 0 40.7528C0 53.7207 10.3913 64.3307 23.0918 64.3307C35.7923 64.3307 46.1837 53.7207 46.1837 40.7528C46.2991 27.7849 35.7923 17.1749 23.0918 17.1749ZM18.2425 52.4239C18.4735 52.5418 19.0507 52.8954 19.2817 53.7207C19.3971 54.3101 19.2817 54.7817 19.0508 55.3711C18.7044 55.9606 18.1271 56.3142 17.3189 56.3142C16.9725 56.3142 16.5107 56.1964 16.1643 56.0785L15.1251 55.6069C10.3913 52.7776 7.50484 47.7083 7.50484 41.9317V39.5739C7.50484 33.7973 10.5068 28.6102 15.2406 26.1345L16.1643 25.6629C16.5107 25.545 16.857 25.4271 17.3189 25.4271C18.0116 25.4271 18.7044 25.7808 19.0508 26.3703C19.2817 26.8418 19.3971 27.3134 19.2817 28.0207C19.0507 28.9638 18.2425 29.4354 18.2425 29.4354C15.4715 30.7322 13.7396 33.6794 13.7396 36.8624V45.2326C13.6242 48.1799 15.4715 51.1271 18.2425 52.4239ZM38.7943 41.9317C38.7943 47.7083 35.9078 52.8954 31.0585 55.3711L30.0194 55.8427C29.673 55.9606 29.2112 56.0785 28.8648 56.0785C28.172 56.0785 27.5947 55.7248 27.1329 55.1353C26.902 54.6638 26.7865 54.0743 26.902 53.4849C27.0174 52.6597 27.7102 52.1881 27.9411 52.1881C30.7121 50.8913 32.5595 47.9441 32.5595 44.7611V36.3909C32.5595 33.2079 30.7121 30.2606 28.0566 28.9638C28.0566 28.9638 27.2484 28.6102 27.0174 27.5492C26.902 26.9597 27.0174 26.4882 27.2484 25.8987C27.5947 25.7808 28.172 25.4271 28.9802 25.4271C29.3266 25.4271 29.7885 25.545 30.1348 25.6629L31.174 26.1345C35.9078 28.7281 38.9097 33.9152 38.9097 39.5739V41.9317H38.7943Z" fill="white"/>
<path d="M225.261 30.1428V51.3629H220.527V36.8625L210.136 51.3629H206.672V34.0331C206.672 31.5574 204.825 31.5574 204.825 31.6753V30.1428H211.29V44.6432L221.682 30.1428H225.261Z" fill="white"/>
<path d="M243.965 38.395V37.4519C243.965 34.5047 241.656 32.1469 238.769 32.1469C235.883 32.1469 233.574 34.5047 233.574 37.4519V38.395H243.965ZM239 51.3629C233.689 51.3629 228.609 46.8831 228.609 41.4602V40.2813C228.609 34.3868 233.343 30.1428 239 30.1428C244.658 30.1428 249.045 34.8584 249.045 40.7528H233.804V43.9359C233.804 46.8831 236.114 49.2409 239.462 49.2409C242.464 49.2409 244.427 47.9441 246.043 46.1758L247.775 46.4115C245.812 49.2409 242.926 51.3629 239 51.3629Z" fill="white"/>
<path d="M158.179 30.1428H151.598V31.5574C151.713 31.5574 153.445 31.3217 153.56 33.6795V51.3629H164.875C168.455 51.245 170.533 49.2409 170.533 46.0579V44.6432C170.533 41.1065 168.801 38.8666 164.875 38.8666H158.179V30.1428ZM158.179 40.7528H161.989C163.49 40.7528 165.799 41.8138 165.799 45.1148C165.799 48.4157 163.952 48.8872 161.989 49.0051H158.179V40.7528Z" fill="white"/>
<path d="M178.961 30.1428H172.38V31.5574C172.38 31.5574 174.343 31.5574 174.343 33.9152V51.3629H178.961V30.1428Z" fill="white"/>
<path d="M134.048 32.3826V30.1427H127.698V31.5574C127.698 31.5574 129.314 31.4395 129.314 33.6794V60.7941H133.933V48.2977C135.895 50.6555 138.551 50.7734 139.359 50.7734C144.901 50.6555 148.942 46.2936 148.942 40.7528V39.456C149.173 33.5615 145.363 29.7891 139.821 29.7891C137.396 29.7891 135.087 30.8501 134.048 32.3826ZM144.324 43.8179C144.208 46.4115 142.015 48.5335 139.359 48.6514H138.897C136.473 48.6514 134.279 46.7652 133.933 44.8789V36.1551C134.163 34.151 136.242 31.7932 138.897 31.7932H139.705C139.705 31.7932 144.208 32.2647 144.324 37.2161V43.8179Z" fill="white"/>
<path d="M101.604 30.1428V33.6795H99.8719C99.8719 33.6795 99.7565 32.029 98.2555 32.029H94.6763V51.3629H90.0579V32.029H86.4787C85.0932 32.029 84.8623 33.6795 84.8623 33.6795H83.1304V30.1428H101.604Z" fill="white"/>
<path d="M202.054 30.1428V33.6795H200.322C200.322 33.6795 200.206 32.029 198.705 32.029H195.126V51.3629H190.508V32.029H186.928C185.543 32.029 185.312 33.6795 185.312 33.6795H183.58V30.1428H202.054Z" fill="white"/>
<path d="M125.158 51.3629H119.5L116.614 45.5863C116.614 45.5863 114.766 41.696 113.727 41.696H110.841V51.3629H106.222V34.0331C106.338 32.7363 105.645 31.7932 104.375 31.6753V30.1428H110.841L110.956 38.8666H112.804C113.843 38.6308 114.535 37.8056 114.997 36.8625C118.346 31.3217 117.999 30.2607 119.5 30.2607H124.234V31.6753C121.232 31.6753 120.539 37.9235 117.653 39.9276C119.038 40.5171 119.731 42.4033 122.849 48.1799C122.849 48.1799 123.772 50.0661 125.158 50.0661V51.3629Z" fill="white"/>
<path d="M69.1474 77.9808C69.1474 75.2354 67.371 73.7819 64.3026 73.7819H62.3647V69.7446H68.1785L67.8555 67.9681H60.4268V82.5026H63.9796C67.048 82.3411 69.1474 80.8877 69.1474 77.9808ZM67.2095 77.9808C67.2095 79.7572 66.0791 80.5647 64.1411 80.5647H62.5262V75.3969H64.3026C66.0791 75.3969 67.2095 76.3658 67.2095 77.9808ZM70.9239 82.3411H73.0233L74.6382 77.9808H80.6135L82.39 82.5026L84.3279 82.0181L78.6756 67.8066H76.7377L70.9239 82.3411ZM77.5451 70.0676L79.8061 76.2043H75.1227L77.5451 70.0676ZM98.7009 82.3411V67.8066H96.7629V73.7819H89.3342V67.8066H87.3963V82.3411H89.3342V75.7199H96.6014V82.3411H98.7009ZM113.881 82.0181L107.099 74.5894L113.558 67.8066H110.974L104.999 74.2664V67.8066H103.061V82.3411H104.999V75.0739L111.62 82.5026L113.881 82.0181Z" fill="white"/>
</svg>
