<svg width="250" height="100" viewBox="0 0 250 100" fill="none" xmlns="http://www.w3.org/2000/svg">
<path d="M27.2816 79.7837H5.38027V70.5925H27.2226V79.7837H27.2816ZM31.6619 66.0303H1V88.9582H5.38027V84.371H31.6028V65.9885L31.6619 66.0303ZM5.38027 24.7618L14.1493 15.5873V47.6897H5.38027V24.7618ZM1 52.2686H18.462V11H11.9465L1 22.464V52.2686ZM27.2816 15.5873H36.0928V47.6897H27.2816V15.5873ZM22.9014 52.2686H40.3634V11H22.9014V52.2686ZM71.0084 52.2686H75.3887V11H68.7803V11.0668L62.2057 17.9435V11H55.6395L44.6677 22.464V52.2686H49.048V24.7618L57.8085 15.5705V52.2519H62.1888V24.7618L70.9578 15.5705L71.0084 52.2686ZM1 61.4431H75.3549V56.8558H1V61.4431ZM57.8929 70.6343H70.9747V79.8255H57.8929V70.6343ZM53.5127 79.8255H40.3634V70.6343H53.5127V79.8255ZM57.8929 84.4128H75.414V66.0303H36.0422V84.4128H53.5127V89H57.8929V84.4128ZM140.443 51.5667H144.266C144.64 51.5539 145.012 51.6207 145.358 51.7625C145.704 51.9043 146.014 52.1178 146.27 52.3886C146.525 52.6594 146.718 52.9813 146.837 53.3325C146.956 53.6836 146.997 54.056 146.959 54.4243C146.959 56.1539 145.954 57.2736 144.266 57.2736H140.443V51.5667ZM140.443 47.9738V43.7959H149.583V40.203H136.569V60.8415H144.452C148.393 60.8415 150.832 58.176 150.832 54.3993C150.832 50.6225 148.393 47.9487 144.452 47.9487L140.443 47.9738ZM165.045 53.8227H160.158L162.69 46.3026L165.045 53.8227ZM167.231 60.8916H171.24L164.108 40.2531H161.104L153.964 60.8916H157.973L159.163 57.2318H166.109L167.231 60.8916ZM185.799 60.8916H189.613V40.1863H185.799V48.6171H179.156V40.1863H175.35V60.8247H179.165V52.2101H185.807L185.799 60.8916ZM203.759 49.9206L210.333 40.2531H205.734L199.404 49.9791V40.1863H195.606V60.8247H199.421V50.0376L206.307 60.8247H211L203.759 49.9206Z" fill="black"/>
<path d="M110 11H106V89H110V11Z" fill="#95D578"/>
</svg>
