<svg width="250" height="100" viewBox="0 0 250 100" fill="none" xmlns="http://www.w3.org/2000/svg">
<g clip-path="url(#clip0)">
<path d="M53.5648 22.6452H9.52092L12.6946 13.8983H56.7385L53.5648 22.6452ZM52.0167 26.9799H7.8954L4.72176 35.7268H48.7657L52.0167 26.9799ZM47.2176 40.1389H3.17364L0 48.8858H44.0439L47.2176 40.1389Z" fill="white"/>
<path d="M158.605 70.6368H166.5C169.519 70.6368 171.299 69.9402 172.538 68.3146C173.614 66.8937 174.162 65.1418 174.086 63.3607C174.086 60.6515 173.157 58.7163 171.377 57.4004C170.293 56.549 168.822 56.1619 166.423 56.1619H158.605V70.6368ZM148.155 79.4611V26.9799H182.291L179.272 35.8042H158.605V47.4151H167.042C173.854 47.4151 177.414 49.0406 179.814 51.1305C181.749 52.7561 185 56.3941 185 63.5929C185 70.6368 181.672 74.5845 178.808 76.5971C175.556 78.8418 172.073 79.4611 165.107 79.4611H148.155ZM117.966 79.4611V35.8042H102.795V26.9799H144.904L141.885 35.8042H128.494V79.4611H117.966ZM75.9352 47.9569H81.818C83.0395 48.0495 84.2679 47.945 85.4561 47.6473C87.9331 46.9506 89.4812 44.7833 89.4812 41.7644C89.4812 38.2038 87.8556 36.6557 85.4561 35.959C84.1423 35.6234 82.7846 35.4928 81.4309 35.572H75.9352V47.9569ZM76.0126 57.0134V70.7916H83.2887C85.4561 70.7916 87.4686 70.6368 88.9393 69.2435C90.3854 67.8557 91.1494 65.9032 91.0293 63.9025C91.0669 62.2701 90.5783 60.669 89.636 59.3356C88.0879 57.4004 86.1527 57.0134 82.9017 57.0134H76.0126ZM92.8096 51.5176V51.6724C94.5679 52.3468 96.2125 53.2865 97.6862 54.459C100.782 57.0134 102.098 60.3418 102.098 64.6766C102.098 71.8753 98.3054 76.9841 92.0356 78.6096C90.1004 79.1515 88.1653 79.3063 84.4497 79.3063H65.5627V26.9799H82.3598C85.0105 26.876 87.6636 27.1101 90.2552 27.6766C96.2928 29.3021 100.318 33.482 100.318 40.1389C100.428 43.3143 99.2238 46.3945 96.9895 48.6536C95.7754 49.8464 94.3604 50.816 92.8096 51.5176Z" fill="white"/>
</g>
<defs>
<clipPath id="clip0">
<rect width="250" height="100" fill="white"/>
</clipPath>
</defs>
</svg>
